# xmcd CD database file
#
# Track frame offsets:
#	150
#	15885
#	36232
#	50981
#	62233
#	77870
#	99425
#	113459
#	128869
#	140533
#	154705
#	169845
#	184924
#	206119
#
# Disc length: 2944 seconds
#
# Revision: 2
# Processed by: cddbd v1.4PL0 Copyright (c) Steve Scherf et al.
# Submitted via: CDex 1.50
#
DISCID=c00b7e0e
DTITLE=Big Bill Bronzy - Big Bill Blues
DYEAR=1984
DGENRE=Blues
TTITLE0=Big Bill Blues
TTITLE1=Louise, Louise Blues
TTITLE2=Lonesome Road Blues
TTITLE3=Baby, Please Don't Go
TTITLE4=Guitar Shuffle
TTITLE5=In The Evening
TTITLE6=Down By The Riverside
TTITLE7=John Henry
TTITLE8=Willie Mae Blues
TTITLE9=Black Brown and White
TTITLE10=How Long Blues
TTITLE11=House Rent Stomp
TTITLE12=Back Water Blues
TTITLE13=Blues In 1890
EXTD=YEAR: 1984
EXTT0=
EXTT1=
EXTT2=
EXTT3=
EXTT4=
EXTT5=
EXTT6=
EXTT7=
EXTT8=
EXTT9=
EXTT10=
EXTT11=
EXTT12=
EXTT13=
PLAYORDER=
